HIERARCHY
ROOT Hips
{
	OFFSET 0.000000 0.000000 0.000000
	CHANNELS 6 Xposition Yposition Zposition Zrotation Yrotation Xrotation 
	JOINT LHipJoint
	{
		OFFSET 0.000000 0.000000 0.000000
		CHANNELS 3 Zrotation Yrotation Xrotation
		JOINT LeftUpLeg
		{
			OFFSET 1.363060 -1.794630 0.839290
			CHANNELS 3 Zrotation Yrotation Xrotation
			JOINT LeftLeg
			{
				OFFSET 2.448110 -6.726130 0.000000
				CHANNELS 3 Zrotation Yrotation Xrotation
				JOINT LeftFoot
				{
					OFFSET 2.562200 -7.039590 0.000000
					CHANNELS 3 Zrotation Yrotation Xrotation
					JOINT LeftToeBase
					{
						OFFSET 0.157640 -0.433110 2.322550
						CHANNELS 3 Zrotation Yrotation Xrotation
						End Site
						{
							OFFSET 0.000000 0.000000 0.000000
						}
					}
				}
			}
		}
	}
	JOINT RHipJoint
	{
		OFFSET 0.000000 0.000000 0.000000
		CHANNELS 3 Zrotation Yrotation Xrotation
		JOINT RightUpLeg
		{
			OFFSET -1.305520 -1.794630 0.839290
			CHANNELS 3 Zrotation Yrotation Xrotation
			JOINT RightLeg
			{
				OFFSET -2.542530 -6.985550 0.000000
				CHANNELS 3 Zrotation Yrotation Xrotation
				JOINT RightFoot
				{
					OFFSET -2.568260 -7.056230 0.000000
					CHANNELS 3 Zrotation Yrotation Xrotation
					JOINT RightToeBase
					{
						OFFSET -0.164730 -0.452590 2.363150
						CHANNELS 3 Zrotation Yrotation Xrotation
						End Site
						{
							OFFSET 0.000000 0.000000 0.000000
						}
					}
				}
			}
		}
	}
	JOINT LowerBack
	{
		OFFSET 0.000000 0.000000 0.000000
		CHANNELS 3 Zrotation Yrotation Xrotation
		JOINT Spine
		{
			OFFSET 0.028270 2.035590 -0.193380
			CHANNELS 3 Zrotation Yrotation Xrotation
			JOINT Spine1
			{
				OFFSET 0.056720 2.048850 -0.042750
				CHANNELS 3 Zrotation Yrotation Xrotation
				JOINT Neck
				{
					OFFSET 0.000000 0.000000 0.000000
					CHANNELS 3 Zrotation Yrotation Xrotation
					JOINT Neck1
					{
						OFFSET -0.054170 1.746240 0.172020
						CHANNELS 3 Zrotation Yrotation Xrotation
						JOINT Head
						{
							OFFSET 0.104070 1.761360 -0.123970
							CHANNELS 3 Zrotation Yrotation Xrotation
							End Site
							{
								OFFSET 0.000000 0.000000 0.000000
							}
						}
					}
				}
				JOINT LeftShoulder
				{
					OFFSET 0.000000 0.000000 0.000000
					CHANNELS 3 Zrotation Yrotation Xrotation
					JOINT LeftArm
					{
						OFFSET 3.362410 1.200890 -0.311210
						CHANNELS 3 Zrotation Yrotation Xrotation
						JOINT LeftForeArm
						{
							OFFSET 4.983000 -0.000000 -0.000000
							CHANNELS 3 Zrotation Yrotation Xrotation
							JOINT LeftHand
							{
								OFFSET 3.483560 -0.000000 -0.000000
								CHANNELS 3 Zrotation Yrotation Xrotation
								JOINT LeftFingerBase
								{
									OFFSET 0.000000 0.000000 0.000000
									CHANNELS 3 Zrotation Yrotation Xrotation
									JOINT LeftHandIndex1
									{
										OFFSET 0.715260 -0.000000 -0.000000
										CHANNELS 3 Zrotation Yrotation Xrotation
										End Site
										{
											OFFSET 0.000000 0.000000 0.000000
										}
									}
								}
								JOINT LThumb
								{
									OFFSET 0.000000 0.000000 0.000000
									CHANNELS 3 Zrotation Yrotation Xrotation
									End Site
									{
										OFFSET 0.000000 0.000000 0.000000
									}
								}
							}
						}
					}
				}
				JOINT RightShoulder
				{
					OFFSET 0.000000 0.000000 0.000000
					CHANNELS 3 Zrotation Yrotation Xrotation
					JOINT RightArm
					{
						OFFSET -3.136600 1.374050 -0.404650
						CHANNELS 3 Zrotation Yrotation Xrotation
						JOINT RightForeArm
						{
							OFFSET -5.241900 -0.000000 -0.000000
							CHANNELS 3 Zrotation Yrotation Xrotation
							JOINT RightHand
							{
								OFFSET -3.444170 -0.000000 -0.000000
								CHANNELS 3 Zrotation Yrotation Xrotation
								JOINT RightFingerBase
								{
									OFFSET 0.000000 0.000000 0.000000
									CHANNELS 3 Zrotation Yrotation Xrotation
									JOINT RightHandIndex1
									{
										OFFSET -0.622530 -0.000000 -0.000000
										CHANNELS 3 Zrotation Yrotation Xrotation
										End Site
										{
											OFFSET 0.000000 0.000000 0.000000
										}
									}
								}
								JOINT RThumb
								{
									OFFSET 0.000000 0.000000 0.000000
									CHANNELS 3 Zrotation Yrotation Xrotation
									End Site
									{
										OFFSET 0.000000 0.000000 0.000000
									}
								}
							}
						}
					}
				}
			}
		}
	}
}
MOTION
Frames: 11
Frame Time: 0.008333
11.307481 18.108351 -45.017364 -3.292813 -1.311507 2.191226 -0.195831 2.139295 1.502565 -9.024058 -15.479055 -13.234963 -1.066317 10.074996 27.849617 -2.421737 9.364497 1.598527 1.060500 -6.547600 -18.381700 -3.202341 -2.960166 1.215413 32.109386 21.535298 0.370406 2.873857 -6.943107 21.425965 7.419599 -26.395317 -15.935255 -0.085400 -1.884800 5.187400 2.171780 1.111097 2.674928 3.007550 1.253799 12.378097 -3.825277 1.058149 -6.819157 -6.804640 -0.412655 -9.331322 11.448911 -1.570584 -9.152666 2.098100 -1.679100 -2.766600 -1.657978 -12.754921 1.345726 -89.519878 -1.749619 8.932226 23.012119 -23.325128 -5.976031 2.001794 0.931920 15.728154 4.897411 -35.373949 -1.960900 -7.125000 0.000000 0.000000 -16.182100 -5.700400 18.427200 0.126424 10.426100 1.891229 86.429322 4.373570 33.988219 -20.988495 23.808156 -5.826957 1.347266 0.364151 17.401563 -3.398284 -49.077964 3.487300 7.125000 0.000000 0.000000 60.753900 -71.725200 -42.946700 
11.302642 18.108469 -45.034123 -3.322068 -1.457637 2.276922 -0.180227 2.118209 1.487921 -8.956698 -15.374366 -13.342452 -1.074566 10.059310 27.788145 -2.451356 9.434142 1.675469 1.116700 -6.713100 -18.868200 -3.192269 -2.944244 1.203650 32.095027 21.645202 0.222901 2.866770 -6.966882 21.432329 7.455691 -26.457173 -15.712712 -0.075200 -1.768700 4.867000 2.116224 1.088985 2.563776 3.211043 1.201869 12.274983 -3.755346 1.040580 -6.791319 -6.720222 -0.248653 -8.938337 11.198255 -1.410696 -9.506303 2.021200 -1.619100 -2.964900 -1.670162 -12.784755 1.349494 -89.559064 -2.124137 9.027029 23.165376 -23.503778 -6.055110 1.956828 0.974279 15.227027 5.694846 -35.717239 -2.488200 -7.125000 0.000000 0.000000 -15.766900 -6.150400 18.028300 0.108906 10.417529 1.902242 86.296981 4.561470 33.665028 -21.209936 24.089115 -5.946965 1.327777 0.412876 16.363095 -2.594889 -49.648046 2.883000 7.125000 0.000000 0.000000 62.994000 -71.702000 -44.834000 
11.298865 18.103984 -45.044273 -3.378105 -1.646330 2.086762 -0.153967 2.157417 1.531033 -8.941324 -15.202121 -13.212504 -1.067213 10.043658 27.794028 -2.449173 9.427928 1.733361 1.190000 -6.922400 -19.485500 -3.190847 -2.969299 1.210199 32.217570 21.607899 0.390853 2.856235 -6.967188 21.458739 7.437705 -26.396763 -15.597694 -0.067500 -1.676200 4.611500 2.026689 1.075865 2.694371 3.483895 1.167237 12.271973 -3.652702 1.038113 -6.881998 -6.747258 -0.098393 -8.576289 11.015673 -1.263388 -9.656471 1.974900 -1.551000 -3.088800 -1.685279 -12.799402 1.348272 -89.677374 -2.372331 9.151054 23.377735 -23.751515 -6.165387 1.891670 1.028900 14.647402 6.859720 -36.155984 -3.270900 -7.125000 0.000000 0.000000 -15.162600 -6.755800 17.429200 0.089957 10.412486 1.897503 86.132080 4.599366 33.612281 -21.151813 23.979720 -5.855650 1.346536 0.355421 16.958777 -3.861902 -48.206665 3.797100 7.125000 0.000000 0.000000 58.009500 -71.464100 -40.362800 
11.292610 18.102804 -45.050883 -3.447758 -1.787469 2.012896 -0.118775 2.171587 1.550647 -8.890816 -15.061443 -13.173149 -1.065875 10.025346 27.776884 -2.429155 9.382443 1.733513 1.216200 -6.995400 -19.701600 -3.171959 -2.981617 1.220948 32.296608 21.565768 0.437770 2.855268 -6.966739 21.470679 7.360328 -26.189617 -15.589653 -0.069000 -1.695200 4.664200 1.849719 1.010696 2.607851 3.952344 1.034968 12.264447 -3.469819 0.999043 -6.834705 -7.150602 0.063143 -8.309828 10.975684 -1.092038 -9.670386 2.026900 -1.454800 -3.141700 -1.713715 -12.838341 1.332703 -89.947783 -2.790344 9.110548 23.563422 -23.947867 -6.236748 1.821294 1.071174 14.229852 8.194198 -36.046510 -4.129000 -7.125000 0.000000 0.000000 -14.431800 -6.860100 16.557100 0.058491 10.398884 1.909526 85.765306 4.651469 33.750372 -21.098984 23.911385 -5.841836 1.358669 0.319109 17.221476 -5.194120 -48.369514 4.827100 7.125000 0.000000 0.000000 57.252200 -71.995000 -40.311700 
11.285883 18.103040 -45.057728 -3.420977 -1.889347 1.917470 -0.123023 2.199578 1.593137 -8.903112 -15.038861 -13.086873 -1.074409 10.003439 27.744061 -2.402642 9.321014 1.682687 1.204600 -6.963300 -19.606700 -3.168880 -2.990231 1.241160 32.287716 21.487876 0.453144 2.845774 -6.973683 21.514142 7.297542 -26.002844 -15.553525 -0.071800 -1.728600 4.756200 1.790848 0.994463 2.394040 3.997202 0.992914 12.738606 -3.392259 0.991252 -6.518132 -6.991199 0.015584 -9.193787 10.817446 -1.079039 -9.498440 1.916500 -1.435000 -2.943500 -1.665383 -12.876743 1.340001 -89.732820 -3.826661 9.446339 23.749101 -24.122140 -6.301045 1.761890 1.102174 13.776647 9.343995 -35.812898 -4.849000 -7.125000 0.000000 0.000000 -13.789500 -6.817000 15.767200 0.021492 10.479614 1.916659 85.648749 5.437582 33.418586 -21.061353 23.863194 -5.838364 1.369292 0.311264 17.194970 -5.696036 -48.597719 5.234000 7.125000 0.000000 0.000000 57.431800 -72.282600 -40.768900 
11.281988 18.104103 -45.063747 -3.330441 -1.926305 1.797702 -0.137773 2.229390 1.613844 -9.000929 -15.106988 -12.923237 -1.090850 9.979591 27.694551 -2.454349 9.428813 1.651504 1.229200 -7.031400 -19.808600 -3.157761 -2.998955 1.242686 32.168270 21.227954 0.409888 2.830844 -6.987638 21.580247 7.225853 -25.766687 -15.462776 -0.083800 -1.867000 5.138300 1.703864 0.952987 2.735379 3.995353 0.955258 12.630875 -3.337525 0.965333 -6.781142 -6.634345 -0.015266 -9.532296 10.510435 -1.107276 -9.214508 1.729500 -1.435400 -2.806900 -1.659484 -12.829256 1.352044 -89.641226 -4.035087 9.742971 24.016808 -24.417190 -6.428078 1.695427 1.137237 13.233691 10.375020 -36.014731 -5.549400 -7.125000 0.000000 0.000000 -13.241700 -7.186900 15.181600 0.025612 10.528507 1.930965 85.720304 5.608731 32.978278 -20.971425 23.758931 -5.799849 1.374603 0.298068 17.446212 -6.186020 -48.665065 5.615900 7.125000 0.000000 0.000000 57.193300 -72.485300 -40.786700 
11.269596 18.101152 -45.092545 -3.287972 -1.675457 1.799251 -0.138318 2.211620 1.577830 -8.945223 -15.105072 -13.013286 -1.109221 9.954493 27.584642 -2.405526 9.335411 1.993568 1.284500 -7.181800 -20.255100 -3.159328 -2.969833 1.210642 32.157740 21.063958 0.251750 2.828092 -7.008535 21.616447 7.243575 -25.832871 -15.517475 -0.088500 -1.919200 5.282400 1.748854 0.763886 3.631467 3.800081 0.775008 12.015352 -3.396296 0.837649 -7.564205 -6.133947 -0.003636 -9.625009 10.315775 -1.092552 -8.836978 1.560600 -1.417400 -2.688200 -1.663686 -12.721520 1.383856 -89.389703 -3.848073 9.985611 24.296870 -24.731706 -6.558716 1.610299 1.177852 12.628227 11.684723 -36.225005 -6.446400 -7.125000 0.000000 0.000000 -12.543700 -7.623000 14.425000 0.079629 10.558260 1.948928 86.093591 5.429133 32.677661 -20.938255 23.736214 -5.788856 1.368191 0.301577 17.704086 -6.299945 -48.927128 5.717500 7.125000 0.000000 0.000000 57.868000 -72.652300 -41.528100 
11.261216 18.096431 -45.105173 -3.346141 -1.680199 1.698094 -0.136824 2.236266 1.601431 -8.848081 -15.139703 -12.930499 -1.122944 9.914959 27.483489 -2.443542 9.422971 2.126984 1.299200 -7.221200 -20.372400 -3.170242 -2.979996 1.217068 32.304976 21.066716 0.332052 2.825754 -7.008985 21.620718 7.270532 -25.923791 -15.500096 -0.077900 -1.799900 4.953000 1.811496 0.742283 3.440225 3.802954 0.739083 12.200274 -3.400457 0.820337 -7.375615 -5.887074 0.055976 -9.378014 10.197805 -1.040332 -9.062636 1.498200 -1.409800 -2.807300 -1.641359 -12.758901 1.392603 -89.139783 -4.442143 10.352899 24.398823 -24.832488 -6.596730 1.632622 1.150410 12.253721 10.773391 -36.012977 -5.817600 -7.125000 0.000000 0.000000 -13.012300 -7.228600 14.913300 0.057247 10.575199 1.936720 86.185421 5.763823 32.284442 -20.870723 23.659855 -5.769703 1.372330 0.301655 17.942169 -6.108721 -49.157884 5.591400 7.125000 0.000000 0.000000 58.694900 -72.697300 -42.271700 
11.255551 18.094071 -45.105763 -3.433329 -1.803298 1.556357 -0.127392 2.285225 1.625092 -8.790620 -15.303731 -12.666979 -1.141672 9.867102 27.377103 -2.620217 9.802066 2.032888 1.346200 -7.345500 -20.743100 -3.164946 -3.007935 1.220329 32.471475 21.117675 0.532956 2.826101 -6.999379 21.616292 7.244158 -25.871403 -15.512096 -0.089200 -1.926700 5.303000 1.703709 0.779386 3.506691 4.101813 0.768486 12.020892 -3.287404 0.845040 -7.497173 -5.879068 0.139100 -8.744587 10.096197 -0.989978 -9.151115 1.478300 -1.389900 -2.942800 -1.676844 -12.758092 1.392159 -89.184046 -4.579055 10.613025 24.476658 -24.911611 -6.639436 1.575053 1.189223 11.987463 11.937965 -36.239394 -6.618800 -7.125000 0.000000 0.000000 -12.402200 -7.671200 14.263800 0.038686 10.560272 1.938469 86.118031 5.638405 31.956566 -20.745606 23.518337 -5.720804 1.376250 0.290475 18.270030 -6.196735 -49.275160 5.670800 7.125000 0.000000 0.000000 58.952000 -72.782600 -42.580600 
11.252364 18.092418 -45.102223 -3.421372 -1.869910 1.428920 -0.156029 2.344294 1.656040 -8.822887 -15.678518 -12.298506 -1.180628 9.801258 27.214220 -2.867299 10.328310 1.839089 1.438700 -7.583300 -21.455500 -3.159186 -3.041164 1.232503 32.510268 21.133006 0.683744 2.821786 -6.992983 21.617071 7.245081 -25.861327 -15.442630 -0.094800 -1.985600 5.465800 1.681259 0.778334 3.311510 4.171441 0.753039 12.056761 -3.244666 0.840569 -7.375298 -5.768070 0.261565 -8.208993 10.040865 -0.875130 -9.365901 1.461500 -1.349000 -3.104600 -1.677333 -12.790287 1.393724 -89.147577 -4.920128 10.757802 24.570660 -25.014183 -6.685372 1.561805 1.193466 11.770210 12.056423 -36.301057 -6.707300 -7.125000 0.000000 0.000000 -12.342800 -7.749300 14.206800 0.020911 10.552403 1.928945 86.176422 5.736107 31.640087 -20.688941 23.458307 -5.712405 1.379507 0.289341 18.303935 -6.515017 -49.629181 5.947800 7.125000 0.000000 0.000000 59.736200 -73.057100 -43.543000 
11.250122 18.091946 -45.099390 -3.323564 -1.903983 1.315358 -0.207074 2.408792 1.699819 -8.920498 -16.125258 -11.908774 -1.238656 9.713245 26.989290 -3.050868 10.715883 1.681022 1.461600 -7.640900 -21.628600 -3.147652 -3.067742 1.253066 32.433325 21.120084 0.756227 2.809895 -7.002346 21.657770 7.276808 -25.927821 -15.396335 -0.089000 -1.924500 5.297000 1.698607 0.688488 3.192741 4.095972 0.633161 12.379636 -3.234823 0.780513 -7.179643 -5.825036 0.287346 -8.865931 10.174155 -0.775140 -9.154826 1.490800 -1.287000 -2.924600 -1.632885 -12.829372 1.401639 -89.028504 -5.733632 10.777728 24.695161 -25.143958 -6.736281 1.557498 1.188866 11.631703 12.079613 -36.186927 -6.703200 -7.125000 0.000000 0.000000 -12.317900 -7.633300 14.155300 0.008494 10.601108 1.925977 86.217947 6.319935 31.406444 -20.637394 23.397255 -5.705753 1.386415 0.290006 18.255999 -6.824643 -49.918375 6.217700 7.125000 0.000000 0.000000 60.363500 -73.297400 -44.339900 
